<svg xmlns="http://www.w3.org/2000/svg" width="15" height="17" fill="none"><path fill="#fff" d="M13.248 1.429h.857a.282.282 0 0 0 .286-.286V.57a.282.282 0 0 0-.286-.285H.962A.282.282 0 0 0 .677.57v.572c0 .16.125.286.285.286h.858c0 3.303 1.58 5.696 3.33 6.857-1.75 1.16-3.33 3.553-3.33 6.857H.962a.282.282 0 0 0-.285.286V16c0 .16.125.286.285.286h13.143a.282.282 0 0 0 .286-.286v-.571a.282.282 0 0 0-.286-.286h-.857c0-3.304-1.58-5.697-3.33-6.857 1.75-1.161 3.33-3.554 3.33-6.857Zm-1.143 0a7.916 7.916 0 0 1-.759 3.428H3.721a7.915 7.915 0 0 1-.759-3.428h9.143Zm-.509 10.857H3.471c.661-1.723 1.849-2.947 3.036-3.429h2.054c1.187.482 2.375 1.706 3.035 3.429Z"/></svg>